<svg width="48" height="48" viewBox="0 0 48 48" fill="none" xmlns="http://www.w3.org/2000/svg">
<g clip-path="url(#clip0_12191_336211)">
<path d="M43 24C43 34.4934 34.4934 43 24 43C13.5066 43 5 34.4934 5 24C5 13.5066 13.5066 5 24 5C34.4934 5 43 13.5066 43 24Z" stroke="black" stroke-width="2"/>
<path d="M10.8334 14C10.8334 11.7909 12.6242 10 14.8334 10H33.1667C35.3758 10 37.1667 11.7909 37.1667 14V34C37.1667 36.2091 35.3759 38 33.1667 38H14.8334C12.6242 38 10.8334 36.2091 10.8334 34V14Z" stroke="black" stroke-width="2"/>
<mask id="path-3-inside-1_12191_336211" fill="white">
<path fill-rule="evenodd" clip-rule="evenodd" d="M38.1667 9.83325L26.7501 36.0242C25.7033 38.4259 22.2968 38.4259 21.25 36.0242L9.83337 9.83325"/>
</mask>
<path d="M26.7501 36.0242L24.9167 35.2251L26.7501 36.0242ZM36.3333 9.03408L24.9167 35.2251L28.5835 36.8234L40.0001 10.6324L36.3333 9.03408ZM23.0833 35.2251L11.6668 9.03408L7.99998 10.6324L19.4166 36.8234L23.0833 35.2251ZM24.9167 35.2251C24.5678 36.0256 23.4323 36.0256 23.0833 35.2251L19.4166 36.8234C21.1614 40.8262 26.8387 40.8262 28.5835 36.8234L24.9167 35.2251Z" fill="black" mask="url(#path-3-inside-1_12191_336211)"/>
</g>
<defs>
<clipPath id="clip0_12191_336211">
<rect width="40" height="40" fill="white" transform="translate(4 4)"/>
</clipPath>
</defs>
</svg>
